<?xml version="1.0" encoding="utf-8"?>
<svg xmlns="http://www.w3.org/2000/svg" style="margin: auto; background: rgba(0, 0, 0, 0) none repeat scroll 0% 0%; display: block; shape-rendering: auto;" width="1920" height="204" preserveAspectRatio="xMidYMid">
<style type="text/css">
  text {
    text-anchor: middle; font-size: 152px; opacity: 0;
  }
</style>
<g style="transform-origin: 960px 102px 0px; transform: scale(1.17829);">
<g transform="translate(960,102)">
  <g transform="translate(0,0)"><g class="path" style="transform: scale(0.91); transform-origin: -382.248px -5.6219px 0px; animation: 1s linear -0.609231s infinite normal forwards running breath-2f554077-3214-44af-ada9-77da49fe19ca;"><path d="M40.12-61.92L40.12-61.92Q45.02-61.92 50.63-60.89L50.63-60.89L50.63-60.89Q56.24-59.86 59.73-58.18L59.73-58.18L59.73-58.18Q60.63-57.79 60.89-57.41L60.89-57.41L60.89-57.41Q61.15-57.02 61.27-55.99L61.27-55.99L62.57-42.70L62.57-42.70Q62.57-42.31 61.86-42.18L61.86-42.18L61.86-42.18Q61.15-42.05 61.02-42.57L61.02-42.57L61.02-42.57Q58.70-51.47 52.57-55.73L52.57-55.73L52.57-55.73Q46.44-59.98 37.41-59.98L37.41-59.98L37.41-59.98Q30.70-59.98 25.35-56.37L25.35-56.37L25.35-56.37Q20.00-52.76 16.96-46.50L16.96-46.50L16.96-46.50Q13.93-40.25 13.93-32.38L13.93-32.38L13.93-32.38Q13.93-24.38 16.96-16.96L16.96-16.96L16.96-16.96Q20.00-9.55 26.12-4.90L26.12-4.90L26.12-4.90Q32.25-0.26 40.89-0.26L40.89-0.26L40.89-0.26Q57.15-0.26 62.18-18.06L62.18-18.06L62.18-18.06Q62.18-18.45 62.82-18.45L62.82-18.45L62.82-18.45Q63.08-18.45 63.40-18.25L63.40-18.25L63.40-18.25Q63.73-18.06 63.73-17.93L63.73-17.93L62.05-4.26L62.05-4.26Q61.92-3.23 61.66-2.84L61.66-2.84L61.66-2.84Q61.40-2.45 60.24-1.94L60.24-1.94L60.24-1.94Q50.31 1.55 39.60 1.55L39.60 1.55L39.60 1.55Q27.35 1.55 19.48-3.35L19.48-3.35L19.48-3.35Q11.61-8.26 8.13-15.61L8.13-15.61L8.13-15.61Q4.64-22.96 4.64-30.44L4.64-30.44L4.64-30.44Q4.64-39.22 9.29-46.44L9.29-46.44L9.29-46.44Q13.93-53.66 22.06-57.79L22.06-57.79L22.06-57.79Q30.19-61.92 40.12-61.92L40.12-61.92" fill="#009ef7" stroke="none" stroke-width="none" transform="translate(-416.4333267211914,24.5631016423152)" style="fill: rgb(0, 158, 247);"></path></g><g class="path" style="transform: scale(0.91); transform-origin: -309.748px -5.8169px 0px; animation: 1s linear -0.558462s infinite normal forwards running breath-2f554077-3214-44af-ada9-77da49fe19ca;"><path d="M139.45-1.55L139.45-1.55Q139.71-1.55 139.71-0.77L139.71-0.77L139.71-0.77Q139.71 0 139.45 0L139.45 0L124.36 0L124.36 0Q122.03 0 116.16-7.74L116.16-7.74L116.16-7.74Q110.30-15.48 102.04-29.15L102.04-29.15L102.04-29.15Q99.59-28.64 96.49-28.64L96.49-28.64L96.49-28.64Q93.27-28.64 91.59-28.90L91.59-28.90L91.59-10.45L91.59-10.45Q91.59-6.45 92.23-4.64L92.23-4.64L92.23-4.64Q92.88-2.84 94.81-2.19L94.81-2.19L94.81-2.19Q96.75-1.55 101.14-1.55L101.14-1.55L101.14-1.55Q101.39-1.55 101.39-0.77L101.39-0.77L101.39-0.77Q101.39 0 101.14 0L101.14 0L101.14 0Q97.52 0 95.59-0.13L95.59-0.13L87.46-0.26L79.85-0.13L79.85-0.13Q77.66 0 73.92 0L73.92 0L73.92 0Q73.66 0 73.66-0.77L73.66-0.77L73.66-0.77Q73.66-1.55 73.92-1.55L73.92-1.55L73.92-1.55Q78.17-1.55 80.17-2.19L80.17-2.19L80.17-2.19Q82.17-2.84 82.95-4.71L82.95-4.71L82.95-4.71Q83.72-6.58 83.72-10.45L83.72-10.45L83.72-49.92L83.72-49.92Q83.72-53.79 83.01-55.60L83.01-55.60L83.01-55.60Q82.30-57.41 80.30-58.11L80.30-58.11L80.30-58.11Q78.30-58.82 74.05-58.82L74.05-58.82L74.05-58.82Q73.79-58.82 73.79-59.60L73.79-59.60L73.79-59.60Q73.79-60.37 74.05-60.37L74.05-60.37L79.98-60.24L79.98-60.24Q84.62-59.98 87.46-59.98L87.46-59.98L87.46-59.98Q89.78-59.98 91.78-60.11L91.78-60.11L91.78-60.11Q93.78-60.24 95.20-60.37L95.20-60.37L95.20-60.37Q99.20-60.76 102.81-60.76L102.81-60.76L102.81-60.76Q111.20-60.76 115.58-57.53L115.58-57.53L115.58-57.53Q119.97-54.31 119.97-48.25L119.97-48.25L119.97-48.25Q119.97-43.09 117.00-38.70L117.00-38.70L117.00-38.70Q114.04-34.31 109.00-31.61L109.00-31.61L109.00-31.61Q116.23-19.74 121.20-13.35L121.20-13.35L121.20-13.35Q126.16-6.97 130.35-4.26L130.35-4.26L130.35-4.26Q134.55-1.55 139.45-1.55L139.45-1.55zM91.59-31.22L91.59-31.22Q93.91-30.83 97.40-30.83L97.40-30.83L97.40-30.83Q105.39-30.83 108.55-34.38L108.55-34.38L108.55-34.38Q111.71-37.93 111.71-44.76L111.71-44.76L111.71-44.76Q111.71-58.95 99.46-58.95L99.46-58.95L99.46-58.95Q94.56-58.95 93.07-56.89L93.07-56.89L93.07-56.89Q91.59-54.83 91.59-49.66L91.59-49.66L91.59-31.22" fill="#009ef7" stroke="none" stroke-width="none" transform="translate(-416.4333267211914,24.5631016423152)" style="fill: rgb(0, 158, 247);"></path></g><g class="path" style="transform: scale(0.91); transform-origin: -242.283px -6.8469px 0px; animation: 1s linear -0.507692s infinite normal forwards running breath-2f554077-3214-44af-ada9-77da49fe19ca;"><path d="M209.88-1.55L209.88-1.55Q210.40-1.55 210.40-0.77L210.40-0.77L210.40-0.77Q210.40 0 209.88 0L209.88 0L209.88 0Q207.56 0 202.40-0.26L202.40-0.26L202.40-0.26Q197.24-0.52 194.92-0.52L194.92-0.52L194.92-0.52Q192.85-0.52 189.50-0.26L189.50-0.26L189.50-0.26Q186.15 0 184.34 0L184.34 0L184.34 0Q183.82 0 183.82-0.77L183.82-0.77L183.82-0.77Q183.82-1.55 184.34-1.55L184.34-1.55L184.34-1.55Q187.69-1.55 189.31-2.39L189.31-2.39L189.31-2.39Q190.92-3.23 190.92-5.42L190.92-5.42L190.92-5.42Q190.92-7.35 189.37-10.84L189.37-10.84L180.60-29.67L162.54-29.67L156.99-15.87L156.99-15.87Q154.93-10.96 154.93-7.74L154.93-7.74L154.93-7.74Q154.93-4.39 157.25-2.97L157.25-2.97L157.25-2.97Q159.57-1.55 164.35-1.55L164.35-1.55L164.35-1.55Q164.99-1.55 164.99-0.77L164.99-0.77L164.99-0.77Q164.99 0 164.35 0L164.35 0L164.35 0Q162.41 0 159.06-0.26L159.06-0.26L159.06-0.26Q155.44-0.52 152.35-0.52L152.35-0.52L152.35-0.52Q149.12-0.52 144.74-0.26L144.74-0.26L144.74-0.26Q140.87 0 138.55 0L138.55 0L138.55 0Q137.90 0 137.90-0.77L137.90-0.77L137.90-0.77Q137.90-1.55 138.55-1.55L138.55-1.55L138.55-1.55Q142.54-1.55 144.87-2.64L144.87-2.64L144.87-2.64Q147.19-3.74 149.19-6.97L149.19-6.97L149.19-6.97Q151.19-10.19 154.03-17.03L154.03-17.03L172.60-62.31L172.60-62.31Q172.86-62.82 173.38-62.82L173.38-62.82L173.38-62.82Q173.89-62.82 174.02-62.31L174.02-62.31L194.79-17.67L194.79-17.67Q198.14-10.45 200.14-7.22L200.14-7.22L200.14-7.22Q202.14-4.00 204.27-2.77L204.27-2.77L204.27-2.77Q206.40-1.55 209.88-1.55L209.88-1.55zM170.92-50.57L163.44-31.99L179.57-31.99L170.92-50.57" fill="#009ef7" stroke="none" stroke-width="none" transform="translate(-416.4333267211914,24.5631016423152)" style="fill: rgb(0, 158, 247);"></path></g><g class="path" style="transform: scale(0.91); transform-origin: -178.558px -5.6219px 0px; animation: 1s linear -0.456923s infinite normal forwards running breath-2f554077-3214-44af-ada9-77da49fe19ca;"><path d="M260.97-59.34L261.10-51.34L261.10-51.34Q261.22-48.89 261.22-45.15L261.22-45.15L261.22-45.15Q261.22-44.76 260.45-44.76L260.45-44.76L260.45-44.76Q259.68-44.76 259.68-45.15L259.68-45.15L259.68-45.15Q259.03-51.34 255.42-55.02L255.42-55.02L255.42-55.02Q251.81-58.70 246.00-58.70L246.00-58.70L242.39-58.70L242.39-58.70Q237.88-58.70 235.81-57.99L235.81-57.99L235.81-57.99Q233.75-57.28 232.97-55.47L232.97-55.47L232.97-55.47Q232.20-53.66 232.20-49.79L232.20-49.79L232.20-30.70L232.20-30.70Q244.58-30.83 249.16-31.35L249.16-31.35L249.16-31.35Q253.74-31.86 254.39-31.86L254.39-31.86L254.39-31.86Q255.03-31.86 255.03-29.15L255.03-29.15L255.03-29.15Q255.03-26.19 254.39-26.19L254.39-26.19L254.39-26.19Q253.87-26.19 249.29-26.90L249.29-26.90L249.29-26.90Q244.71-27.61 232.20-27.86L232.20-27.86L232.20-10.96L232.20-10.96Q232.20-6.84 233.10-4.97L233.10-4.97L233.10-4.97Q234.01-3.10 236.65-2.32L236.65-2.32L236.65-2.32Q239.29-1.55 244.97-1.55L244.97-1.55L244.97-1.55Q245.36-1.55 245.36-0.77L245.36-0.77L245.36-0.77Q245.36 0 244.97 0L244.97 0L244.97 0Q240.33 0 237.88-0.13L237.88-0.13L228.20-0.26L221.23-0.13L221.23-0.13Q219.04 0 214.78 0L214.78 0L214.78 0Q214.53 0 214.53-0.77L214.53-0.77L214.53-0.77Q214.53-1.55 214.78-1.55L214.78-1.55L214.78-1.55Q219.04-1.55 220.98-2.19L220.98-2.19L220.98-2.19Q222.91-2.84 223.62-4.71L223.62-4.71L223.62-4.71Q224.33-6.58 224.33-10.45L224.33-10.45L224.33-49.92L224.33-49.92Q224.33-53.79 223.62-55.60L223.62-55.60L223.62-55.60Q222.91-57.41 220.98-58.11L220.98-58.11L220.98-58.11Q219.04-58.82 214.78-58.82L214.78-58.82L214.78-58.82Q214.53-58.82 214.53-59.60L214.53-59.60L214.53-59.60Q214.53-60.37 214.78-60.37L214.78-60.37L259.68-60.37L259.68-60.37Q260.97-60.37 260.97-59.34L260.97-59.34" fill="#009ef7" stroke="none" stroke-width="none" transform="translate(-416.4333267211914,24.5631016423152)" style="fill: rgb(0, 158, 247);"></path></g><g class="path" style="transform: scale(0.91); transform-origin: -119.023px -7.4919px 0px; animation: 1s linear -0.406154s infinite normal forwards running breath-2f554077-3214-44af-ada9-77da49fe19ca;"><path d="M284.70-58.70L284.70-58.70Q279.80-58.70 276.96-57.34L276.96-57.34L276.96-57.34Q274.12-55.99 272.51-52.76L272.51-52.76L272.51-52.76Q270.90-49.54 270.00-43.60L270.00-43.60L270.00-43.60Q270.00-43.34 269.29-43.34L269.29-43.34L269.29-43.34Q268.58-43.34 268.58-43.60L268.58-43.60L268.58-43.60Q268.96-46.57 269.48-53.15L269.48-53.15L269.48-53.15Q270.00-59.73 270.00-63.21L270.00-63.21L270.00-63.21Q270.00-63.86 270.77-63.86L270.77-63.86L270.77-63.86Q271.54-63.86 271.54-63.21L271.54-63.21L271.54-63.21Q271.54-61.53 273.48-61.08L273.48-61.08L273.48-61.08Q275.41-60.63 278.25-60.63L278.25-60.63L278.25-60.63Q289.60-60.37 297.73-60.37L297.73-60.37L308.95-60.50L308.95-60.50Q311.28-60.63 315.02-60.63L315.02-60.63L315.02-60.63Q319.66-60.63 321.85-61.21L321.85-61.21L321.85-61.21Q324.05-61.79 324.69-63.73L324.69-63.73L324.69-63.73Q324.95-64.11 325.60-64.11L325.60-64.11L325.60-64.11Q326.24-64.11 326.24-63.73L326.24-63.73L326.24-63.73Q325.47-49.79 325.47-43.60L325.47-43.60L325.47-43.60Q325.47-43.34 324.76-43.34L324.76-43.34L324.76-43.34Q324.05-43.34 324.05-43.60L324.05-43.60L324.05-43.60Q323.92-49.41 322.69-52.63L322.69-52.63L322.69-52.63Q321.47-55.86 318.63-57.28L318.63-57.28L318.63-57.28Q315.79-58.70 310.76-58.70L310.76-58.70L310.76-58.70Q305.21-58.70 303.41-56.95L303.41-56.95L303.41-56.95Q301.60-55.21 301.60-49.92L301.60-49.92L301.60-10.45L301.60-10.45Q301.60-6.45 302.38-4.64L302.38-4.64L302.38-4.64Q303.15-2.84 305.34-2.19L305.34-2.19L305.34-2.19Q307.54-1.55 312.57-1.55L312.57-1.55L312.57-1.55Q312.95-1.55 312.95-0.77L312.95-0.77L312.95-0.77Q312.95 0 312.57 0L312.57 0L312.57 0Q308.57 0 306.37-0.13L306.37-0.13L297.34-0.26L288.70-0.13L288.70-0.13Q286.38 0 282.25 0L282.25 0L282.25 0Q281.99 0 281.99-0.77L281.99-0.77L281.99-0.77Q281.99-1.55 282.25-1.55L282.25-1.55L282.25-1.55Q287.15-1.55 289.48-2.19L289.48-2.19L289.48-2.19Q291.80-2.84 292.64-4.71L292.64-4.71L292.64-4.71Q293.47-6.58 293.47-10.45L293.47-10.45L293.47-50.18L293.47-50.18Q293.47-53.92 292.89-55.66L292.89-55.66L292.89-55.66Q292.31-57.41 290.51-58.05L290.51-58.05L290.51-58.05Q288.70-58.70 284.70-58.70L284.70-58.70" fill="#009ef7" stroke="none" stroke-width="none" transform="translate(-416.4333267211914,24.5631016423152)" style="fill: rgb(0, 158, 247);"></path></g><g class="path" style="transform: scale(0.91); transform-origin: -60.7884px -5.6219px 0px; animation: 1s linear -0.355385s infinite normal forwards running breath-2f554077-3214-44af-ada9-77da49fe19ca;"><path d="M344.56-49.92L344.56-49.92Q344.56-46.05 346.56-43.15L346.56-43.15L346.56-43.15Q348.56-40.25 351.52-38.31L351.52-38.31L351.52-38.31Q354.49-36.38 359.39-33.80L359.39-33.80L359.39-33.80Q364.68-30.96 367.91-28.83L367.91-28.83L367.91-28.83Q371.13-26.70 373.33-23.48L373.33-23.48L373.33-23.48Q375.52-20.25 375.52-15.74L375.52-15.74L375.52-15.74Q375.52-10.96 372.87-7.03L372.87-7.03L372.87-7.03Q370.23-3.10 365.33-0.77L365.33-0.77L365.33-0.77Q360.43 1.55 353.85 1.55L353.85 1.55L353.85 1.55Q344.43 1.55 338.24-2.97L338.24-2.97L338.24-2.97Q337.59-3.23 337.40-3.74L337.40-3.74L337.40-3.74Q337.21-4.26 337.08-5.42L337.08-5.42L335.79-18.19L335.79-18.19Q335.66-18.71 336.37-18.83L336.37-18.83L336.37-18.83Q337.08-18.96 337.33-18.45L337.33-18.45L337.33-18.45Q339.14-10.96 344.49-5.74L344.49-5.74L344.49-5.74Q349.85-0.52 356.43-0.52L356.43-0.52L356.43-0.52Q360.94-0.52 364.23-3.16L364.23-3.16L364.23-3.16Q367.52-5.80 367.52-11.35L367.52-11.35L367.52-11.35Q367.52-17.29 363.65-21.03L363.65-21.03L363.65-21.03Q359.78-24.77 352.43-28.64L352.43-28.64L352.43-28.64Q347.27-31.48 344.24-33.60L344.24-33.60L344.24-33.60Q341.20-35.73 339.14-38.83L339.14-38.83L339.14-38.83Q337.08-41.93 337.08-46.31L337.08-46.31L337.08-46.31Q337.08-53.66 342.75-57.79L342.75-57.79L342.75-57.79Q348.43-61.92 356.56-61.92L356.56-61.92L356.56-61.92Q363.39-61.92 369.46-58.95L369.46-58.95L369.46-58.95Q370.62-58.31 370.94-57.99L370.94-57.99L370.94-57.99Q371.26-57.66 371.39-56.76L371.39-56.76L372.29-45.54L372.29-45.54Q372.29-45.02 371.58-44.89L371.58-44.89L371.58-44.89Q370.87-44.76 370.75-45.28L370.75-45.28L370.75-45.28Q370.10-48.50 367.84-51.92L367.84-51.92L367.84-51.92Q365.59-55.34 362.04-57.66L362.04-57.66L362.04-57.66Q358.49-59.98 354.23-59.98L354.23-59.98L354.23-59.98Q349.59-59.98 347.07-57.15L347.07-57.15L347.07-57.15Q344.56-54.31 344.56-49.92L344.56-49.92" fill="#009ef7" stroke="none" stroke-width="none" transform="translate(-416.4333267211914,24.5631016423152)" style="fill: rgb(0, 158, 247);"></path></g><g class="path" style="transform: scale(0.91); transform-origin: 8.29668px -5.6219px 0px; animation: 1s linear -0.304615s infinite normal forwards running breath-2f554077-3214-44af-ada9-77da49fe19ca;"><path d="M465.04-1.55L465.04-1.55Q465.30-1.55 465.30-0.77L465.30-0.77L465.30-0.77Q465.30 0 465.04 0L465.04 0L465.04 0Q461.43 0 459.37-0.13L459.37-0.13L451.76-0.26L442.99-0.13L442.99-0.13Q440.79 0 436.92 0L436.92 0L436.92 0Q436.66 0 436.66-0.77L436.66-0.77L436.66-0.77Q436.66-1.55 436.92-1.55L436.92-1.55L436.92-1.55Q441.70-1.55 444.02-2.26L444.02-2.26L444.02-2.26Q446.34-2.97 447.11-4.77L447.11-4.77L447.11-4.77Q447.89-6.58 447.63-10.45L447.63-10.45L446.08-53.92L423.89-0.90L423.89-0.90Q423.64-0.39 422.99-0.39L422.99-0.39L422.99-0.39Q422.22-0.39 421.96-0.90L421.96-0.90L397.32-49.66L397.06-50.18L395.90-14.06L395.90-14.06Q395.77-7.22 397.71-4.39L397.71-4.39L397.71-4.39Q399.64-1.55 404.29-1.55L404.29-1.55L404.29-1.55Q404.67-1.55 404.67-0.77L404.67-0.77L404.67-0.77Q404.67 0 404.29 0L404.29 0L404.29 0Q401.58 0 400.16-0.13L400.16-0.13L394.48-0.26L389.06-0.13L389.06-0.13Q387.39 0 384.42 0L384.42 0L384.42 0Q384.16 0 384.16-0.77L384.16-0.77L384.16-0.77Q384.16-1.55 384.42-1.55L384.42-1.55L384.42-1.55Q389.19-1.55 391.13-4.39L391.13-4.39L391.13-4.39Q393.06-7.22 393.32-14.06L393.32-14.06L394.61-54.05L394.61-54.05Q390.87-58.82 385.45-58.82L385.45-58.82L385.45-58.82Q385.06-58.82 385.06-59.60L385.06-59.60L385.06-59.60Q385.06-60.37 385.45-60.37L385.45-60.37L392.55-60.24L398.74-60.37L398.74-60.37Q400.42-60.37 401.45-59.21L401.45-59.21L401.45-59.21Q402.48-58.05 404.67-53.66L404.67-53.66L425.83-11.61L444.92-57.15L444.92-57.15Q445.44-58.57 446.53-59.47L446.53-59.47L446.53-59.47Q447.63-60.37 448.79-60.37L448.79-60.37L455.63-60.24L464.27-60.37L464.27-60.37Q464.53-60.37 464.53-59.60L464.53-59.60L464.53-59.60Q464.53-58.82 464.27-58.82L464.27-58.82L464.27-58.82Q458.47-58.82 456.14-57.08L456.14-57.08L456.14-57.08Q453.82-55.34 454.08-50.18L454.08-50.18L455.63-10.45L455.63-10.45Q455.89-6.45 456.53-4.64L456.53-4.64L456.53-4.64Q457.18-2.84 459.05-2.19L459.05-2.19L459.05-2.19Q460.92-1.55 465.04-1.55L465.04-1.55" fill="#009ef7" stroke="none" stroke-width="none" transform="translate(-416.4333267211914,24.5631016423152)" style="fill: rgb(0, 158, 247);"></path></g><g class="path" style="transform: scale(0.91); transform-origin: 88.3467px -6.8469px 0px; animation: 1s linear -0.253846s infinite normal forwards running breath-2f554077-3214-44af-ada9-77da49fe19ca;"><path d="M540.51-1.55L540.51-1.55Q541.03-1.55 541.03-0.77L541.03-0.77L541.03-0.77Q541.03 0 540.51 0L540.51 0L540.51 0Q538.19 0 533.03-0.26L533.03-0.26L533.03-0.26Q527.87-0.52 525.55-0.52L525.55-0.52L525.55-0.52Q523.48-0.52 520.13-0.26L520.13-0.26L520.13-0.26Q516.77 0 514.97 0L514.97 0L514.97 0Q514.45 0 514.45-0.77L514.45-0.77L514.45-0.77Q514.45-1.55 514.97-1.55L514.97-1.55L514.97-1.55Q518.32-1.55 519.93-2.39L519.93-2.39L519.93-2.39Q521.55-3.23 521.55-5.42L521.55-5.42L521.55-5.42Q521.55-7.35 520.00-10.84L520.00-10.84L511.23-29.67L493.17-29.67L487.62-15.87L487.62-15.87Q485.56-10.96 485.56-7.74L485.56-7.74L485.56-7.74Q485.56-4.39 487.88-2.97L487.88-2.97L487.88-2.97Q490.20-1.55 494.97-1.55L494.97-1.55L494.97-1.55Q495.62-1.55 495.62-0.77L495.62-0.77L495.62-0.77Q495.62 0 494.97 0L494.97 0L494.97 0Q493.04 0 489.68-0.26L489.68-0.26L489.68-0.26Q486.07-0.52 482.98-0.52L482.98-0.52L482.98-0.52Q479.75-0.52 475.36-0.26L475.36-0.26L475.36-0.26Q471.49 0 469.17 0L469.17 0L469.17 0Q468.53 0 468.53-0.77L468.53-0.77L468.53-0.77Q468.53-1.55 469.17-1.55L469.17-1.55L469.17-1.55Q473.17-1.55 475.49-2.64L475.49-2.64L475.49-2.64Q477.82-3.74 479.82-6.97L479.82-6.97L479.82-6.97Q481.81-10.19 484.65-17.03L484.65-17.03L503.23-62.31L503.23-62.31Q503.49-62.82 504.00-62.82L504.00-62.82L504.00-62.82Q504.52-62.82 504.65-62.31L504.65-62.31L525.42-17.67L525.42-17.67Q528.77-10.45 530.77-7.22L530.77-7.22L530.77-7.22Q532.77-4.00 534.90-2.77L534.90-2.77L534.90-2.77Q537.03-1.55 540.51-1.55L540.51-1.55zM501.55-50.57L494.07-31.99L510.19-31.99L501.55-50.57" fill="#009ef7" stroke="none" stroke-width="none" transform="translate(-416.4333267211914,24.5631016423152)" style="fill: rgb(0, 158, 247);"></path></g><g class="path" style="transform: scale(0.91); transform-origin: 161.292px -4.69523px 0px; animation: 1s linear -0.203077s infinite normal forwards running breath-2f554077-3214-44af-ada9-77da49fe19ca;"><path d="M610.56-60.37L610.56-60.37Q610.94-60.37 610.94-59.60L610.94-59.60L610.94-59.60Q610.94-58.82 610.56-58.82L610.56-58.82L610.56-58.82Q605.78-58.82 603.72-55.99L603.72-55.99L603.72-55.99Q601.66-53.15 601.66-46.31L601.66-46.31L601.66 1.42L601.66 1.42Q601.66 1.68 601.01 1.81L601.01 1.81L601.01 1.81Q600.37 1.94 600.11 1.68L600.11 1.68L557.80-49.79L557.80-49.79Q557.15-50.44 556.12-51.73L556.12-51.73L556.12-14.06L556.12-14.06Q556.12-7.22 558.05-4.39L558.05-4.39L558.05-4.39Q559.99-1.55 564.76-1.55L564.76-1.55L564.76-1.55Q565.02-1.55 565.02-0.77L565.02-0.77L565.02-0.77Q565.02 0 564.76 0L564.76 0L564.76 0Q561.92 0 560.38-0.13L560.38-0.13L554.96-0.26L549.41-0.13L549.41-0.13Q547.73 0 544.77 0L544.77 0L544.77 0Q544.51 0 544.51-0.77L544.51-0.77L544.51-0.77Q544.51-1.55 544.77-1.55L544.77-1.55L544.77-1.55Q549.54-1.55 551.54-4.39L551.54-4.39L551.54-4.39Q553.54-7.22 553.54-14.06L553.54-14.06L553.54-54.31L553.54-54.31Q550.96-56.76 548.89-57.79L548.89-57.79L548.89-57.79Q546.83-58.82 544.77-58.82L544.77-58.82L544.77-58.82Q544.51-58.82 544.51-59.60L544.51-59.60L544.51-59.60Q544.51-60.37 544.77-60.37L544.77-60.37L551.99-60.24L558.83-60.37L558.83-60.37Q559.73-60.37 560.31-59.86L560.31-59.86L560.31-59.86Q560.89-59.34 562.05-57.66L562.05-57.66L562.05-57.66Q563.08-55.99 564.89-53.66L564.89-53.66L599.08-11.48L599.08-46.31L599.08-46.31Q599.08-53.15 597.21-55.99L597.21-55.99L597.21-55.99Q595.33-58.82 590.56-58.82L590.56-58.82L590.56-58.82Q590.17-58.82 590.17-59.60L590.17-59.60L590.17-59.60Q590.17-60.37 590.56-60.37L590.56-60.37L594.95-60.24L594.95-60.24Q598.30-59.98 600.37-59.98L600.37-59.98L600.37-59.98Q602.43-59.98 606.04-60.24L606.04-60.24L610.56-60.37" fill="#009ef7" stroke="none" stroke-width="none" transform="translate(-416.4333267211914,24.5631016423152)" style="fill: rgb(0, 158, 247);"></path></g><g class="path" style="transform: scale(0.91); transform-origin: 224.302px -5.6219px 0px; animation: 1s linear -0.152308s infinite normal forwards running breath-2f554077-3214-44af-ada9-77da49fe19ca;"><path d="M629.65-49.92L629.65-49.92Q629.65-46.05 631.65-43.15L631.65-43.15L631.65-43.15Q633.65-40.25 636.61-38.31L636.61-38.31L636.61-38.31Q639.58-36.38 644.48-33.80L644.48-33.80L644.48-33.80Q649.77-30.96 653.00-28.83L653.00-28.83L653.00-28.83Q656.22-26.70 658.42-23.48L658.42-23.48L658.42-23.48Q660.61-20.25 660.61-15.74L660.61-15.74L660.61-15.74Q660.61-10.96 657.96-7.03L657.96-7.03L657.96-7.03Q655.32-3.10 650.42-0.77L650.42-0.77L650.42-0.77Q645.52 1.55 638.94 1.55L638.94 1.55L638.94 1.55Q629.52 1.55 623.33-2.97L623.33-2.97L623.33-2.97Q622.68-3.23 622.49-3.74L622.49-3.74L622.49-3.74Q622.30-4.26 622.17-5.42L622.17-5.42L620.88-18.19L620.88-18.19Q620.75-18.71 621.46-18.83L621.46-18.83L621.46-18.83Q622.17-18.96 622.42-18.45L622.42-18.45L622.42-18.45Q624.23-10.96 629.58-5.74L629.58-5.74L629.58-5.74Q634.94-0.52 641.52-0.52L641.52-0.52L641.52-0.52Q646.03-0.52 649.32-3.16L649.32-3.16L649.32-3.16Q652.61-5.80 652.61-11.35L652.61-11.35L652.61-11.35Q652.61-17.29 648.74-21.03L648.74-21.03L648.74-21.03Q644.87-24.77 637.52-28.64L637.52-28.64L637.52-28.64Q632.36-31.48 629.33-33.60L629.33-33.60L629.33-33.60Q626.29-35.73 624.23-38.83L624.23-38.83L624.23-38.83Q622.17-41.93 622.17-46.31L622.17-46.31L622.17-46.31Q622.17-53.66 627.84-57.79L627.84-57.79L627.84-57.79Q633.52-61.92 641.65-61.92L641.65-61.92L641.65-61.92Q648.48-61.92 654.55-58.95L654.55-58.95L654.55-58.95Q655.71-58.31 656.03-57.99L656.03-57.99L656.03-57.99Q656.35-57.66 656.48-56.76L656.48-56.76L657.38-45.54L657.38-45.54Q657.38-45.02 656.67-44.89L656.67-44.89L656.67-44.89Q655.96-44.76 655.84-45.28L655.84-45.28L655.84-45.28Q655.19-48.50 652.93-51.92L652.93-51.92L652.93-51.92Q650.68-55.34 647.13-57.66L647.13-57.66L647.13-57.66Q643.58-59.98 639.32-59.98L639.32-59.98L639.32-59.98Q634.68-59.98 632.16-57.15L632.16-57.15L632.16-57.15Q629.65-54.31 629.65-49.92L629.65-49.92" fill="#009ef7" stroke="none" stroke-width="none" transform="translate(-416.4333267211914,24.5631016423152)" style="fill: rgb(0, 158, 247);"></path></g><g class="path" style="transform: scale(0.91); transform-origin: 288.872px -5.6219px 0px; animation: 1s linear -0.101538s infinite normal forwards running breath-2f554077-3214-44af-ada9-77da49fe19ca;"><path d="M740.85-1.55L740.85-1.55Q741.23-1.55 741.23-0.77L741.23-0.77L741.23-0.77Q741.23 0 740.85 0L740.85 0L740.85 0Q737.23 0 735.04-0.13L735.04-0.13L727.30-0.26L719.43-0.13L719.43-0.13Q717.37 0 713.76 0L713.76 0L713.76 0Q713.37 0 713.37-0.77L713.37-0.77L713.37-0.77Q713.37-1.55 713.76-1.55L713.76-1.55L713.76-1.55Q718.01-1.55 719.95-2.19L719.95-2.19L719.95-2.19Q721.88-2.84 722.59-4.71L722.59-4.71L722.59-4.71Q723.30-6.58 723.30-10.45L723.30-10.45L723.30-29.28L687.18-29.28L687.18-10.45L687.18-10.45Q687.18-6.45 687.89-4.64L687.89-4.64L687.89-4.64Q688.60-2.84 690.54-2.19L690.54-2.19L690.54-2.19Q692.47-1.55 696.86-1.55L696.86-1.55L696.86-1.55Q697.12-1.55 697.12-0.77L697.12-0.77L697.12-0.77Q697.12 0 696.86 0L696.86 0L696.86 0Q693.25 0 691.18-0.13L691.18-0.13L683.18-0.26L675.57-0.13L675.57-0.13Q673.38 0 669.64 0L669.64 0L669.64 0Q669.38 0 669.38-0.77L669.38-0.77L669.38-0.77Q669.38-1.55 669.64-1.55L669.64-1.55L669.64-1.55Q673.90-1.55 675.90-2.19L675.90-2.19L675.90-2.19Q677.89-2.84 678.67-4.71L678.67-4.71L678.67-4.71Q679.44-6.58 679.44-10.45L679.44-10.45L679.44-49.92L679.44-49.92Q679.44-53.79 678.73-55.60L678.73-55.60L678.73-55.60Q678.02-57.41 676.02-58.11L676.02-58.11L676.02-58.11Q674.02-58.82 669.77-58.82L669.77-58.82L669.77-58.82Q669.51-58.82 669.51-59.60L669.51-59.60L669.51-59.60Q669.51-60.37 669.77-60.37L669.77-60.37L675.57-60.24L675.57-60.24Q680.47-59.98 683.18-59.98L683.18-59.98L683.18-59.98Q686.41-59.98 691.31-60.24L691.31-60.24L696.86-60.37L696.86-60.37Q697.12-60.37 697.12-59.60L697.12-59.60L697.12-59.60Q697.12-58.82 696.86-58.82L696.86-58.82L696.86-58.82Q692.73-58.82 690.67-58.05L690.67-58.05L690.67-58.05Q688.60-57.28 687.89-55.41L687.89-55.41L687.89-55.41Q687.18-53.54 687.18-49.66L687.18-49.66L687.18-31.61L723.30-31.61L723.30-49.66L723.30-49.66Q723.30-53.54 722.59-55.41L722.59-55.41L722.59-55.41Q721.88-57.28 719.88-58.05L719.88-58.05L719.88-58.05Q717.88-58.82 713.76-58.82L713.76-58.82L713.76-58.82Q713.37-58.82 713.37-59.60L713.37-59.60L713.37-59.60Q713.37-60.37 713.76-60.37L713.76-60.37L719.43-60.24L719.43-60.24Q724.08-59.98 727.30-59.98L727.30-59.98L727.30-59.98Q730.14-59.98 735.04-60.24L735.04-60.24L740.85-60.37L740.85-60.37Q741.23-60.37 741.23-59.60L741.23-59.60L741.23-59.60Q741.23-58.82 740.85-58.82L740.85-58.82L740.85-58.82Q736.59-58.82 734.59-58.11L734.59-58.11L734.59-58.11Q732.59-57.41 731.82-55.60L731.82-55.60L731.82-55.60Q731.04-53.79 731.04-49.92L731.04-49.92L731.04-10.45L731.04-10.45Q731.04-6.58 731.82-4.71L731.82-4.71L731.82-4.71Q732.59-2.84 734.59-2.19L734.59-2.19L734.59-2.19Q736.59-1.55 740.85-1.55L740.85-1.55" fill="#009ef7" stroke="none" stroke-width="none" transform="translate(-416.4333267211914,24.5631016423152)" style="fill: rgb(0, 158, 247);"></path></g><g class="path" style="transform: scale(0.91); transform-origin: 347.892px -5.6219px 0px; animation: 1s linear -0.0507692s infinite normal forwards running breath-2f554077-3214-44af-ada9-77da49fe19ca;"><path d="M768.32-10.45L768.32-10.45Q768.32-6.45 769.03-4.64L769.03-4.64L769.03-4.64Q769.74-2.84 771.68-2.19L771.68-2.19L771.68-2.19Q773.61-1.55 778.00-1.55L778.00-1.55L778.00-1.55Q778.26-1.55 778.26-0.77L778.26-0.77L778.26-0.77Q778.26 0 778.00 0L778.00 0L778.00 0Q774.39 0 772.32-0.13L772.32-0.13L764.20-0.26L756.58-0.13L756.58-0.13Q754.39 0 750.65 0L750.65 0L750.65 0Q750.39 0 750.39-0.77L750.39-0.77L750.39-0.77Q750.39-1.55 750.65-1.55L750.65-1.55L750.65-1.55Q755.04-1.55 756.97-2.19L756.97-2.19L756.97-2.19Q758.91-2.84 759.62-4.64L759.62-4.64L759.62-4.64Q760.33-6.45 760.33-10.45L760.33-10.45L760.33-49.92L760.33-49.92Q760.33-53.79 759.62-55.60L759.62-55.60L759.62-55.60Q758.91-57.41 756.91-58.11L756.91-58.11L756.91-58.11Q754.91-58.82 750.65-58.82L750.65-58.82L750.65-58.82Q750.39-58.82 750.39-59.60L750.39-59.60L750.39-59.60Q750.39-60.37 750.65-60.37L750.65-60.37L756.58-60.24L756.58-60.24Q761.23-59.98 764.20-59.98L764.20-59.98L764.20-59.98Q767.55-59.98 772.45-60.24L772.45-60.24L778.00-60.37L778.00-60.37Q778.26-60.37 778.26-59.60L778.26-59.60L778.26-59.60Q778.26-58.82 778.00-58.82L778.00-58.82L778.00-58.82Q773.87-58.82 771.81-58.05L771.81-58.05L771.81-58.05Q769.74-57.28 769.03-55.41L769.03-55.41L769.03-55.41Q768.32-53.54 768.32-49.66L768.32-49.66L768.32-10.45" fill="#009ef7" stroke="none" stroke-width="none" transform="translate(-416.4333267211914,24.5631016423152)" style="fill: rgb(0, 158, 247);"></path></g><g class="path" style="transform: scale(0.91); transform-origin: 396.012px -5.8169px 0px; animation: 1s linear 0s infinite normal forwards running breath-2f554077-3214-44af-ada9-77da49fe19ca;"><path d="M805.09-10.96L805.09-10.96Q805.09-6.84 805.99-4.97L805.99-4.97L805.99-4.97Q806.89-3.10 809.54-2.32L809.54-2.32L809.54-2.32Q812.18-1.55 817.86-1.55L817.86-1.55L817.86-1.55Q818.25-1.55 818.25-0.77L818.25-0.77L818.25-0.77Q818.25 0 817.86 0L817.86 0L817.86 0Q813.22 0 810.76-0.13L810.76-0.13L801.22-0.26L793.61-0.13L793.61-0.13Q791.41 0 787.67 0L787.67 0L787.67 0Q787.42 0 787.42-0.77L787.42-0.77L787.42-0.77Q787.42-1.55 787.67-1.55L787.67-1.55L787.67-1.55Q791.93-1.55 793.87-2.19L793.87-2.19L793.87-2.19Q795.80-2.84 796.51-4.71L796.51-4.71L796.51-4.71Q797.22-6.58 797.22-10.45L797.22-10.45L797.22-49.92L797.22-49.92Q797.22-53.79 796.51-55.60L796.51-55.60L796.51-55.60Q795.80-57.41 793.80-58.11L793.80-58.11L793.80-58.11Q791.80-58.82 787.67-58.82L787.67-58.82L787.67-58.82Q787.42-58.82 787.42-59.60L787.42-59.60L787.42-59.60Q787.42-60.37 787.67-60.37L787.67-60.37L793.48-60.24L793.48-60.24Q798.38-59.98 801.09-59.98L801.09-59.98L801.09-59.98Q803.28-59.98 805.28-60.11L805.28-60.11L805.28-60.11Q807.28-60.24 808.70-60.37L808.70-60.37L808.70-60.37Q812.70-60.76 816.18-60.76L816.18-60.76L816.18-60.76Q837.47-60.76 837.47-45.02L837.47-45.02L837.47-45.02Q837.47-38.83 834.31-34.64L834.31-34.64L834.31-34.64Q831.15-30.44 826.31-28.38L826.31-28.38L826.31-28.38Q821.47-26.32 816.31-26.32L816.31-26.32L816.31-26.32Q812.83-26.32 810.64-26.83L810.64-26.83L810.64-26.83Q810.38-26.83 810.38-27.48L810.38-27.48L810.38-27.48Q810.38-28.51 811.02-28.51L811.02-28.51L811.02-28.51Q812.96-28.12 815.02-28.12L815.02-28.12L815.02-28.12Q820.70-28.12 824.63-31.80L824.63-31.80L824.63-31.80Q828.57-35.48 828.57-42.44L828.57-42.44L828.57-42.44Q828.57-50.57 824.37-54.76L824.37-54.76L824.37-54.76Q820.18-58.95 813.09-58.95L813.09-58.95L813.09-58.95Q809.86-58.95 808.25-58.44L808.25-58.44L808.25-58.44Q806.64-57.92 805.86-55.99L805.86-55.99L805.86-55.99Q805.09-54.05 805.09-49.66L805.09-49.66L805.09-10.96" fill="#009ef7" stroke="none" stroke-width="none" transform="translate(-416.4333267211914,24.5631016423152)" style="fill: rgb(0, 158, 247);"></path></g></g>
</g>
</g>
<style id="breath-2f554077-3214-44af-ada9-77da49fe19ca" data-anikit="">@keyframes breath-2f554077-3214-44af-ada9-77da49fe19ca
{
  0% {
    animation-timing-function: cubic-bezier(0.9647,0.2413,-0.0705,0.7911);
    transform: scale(0.9099999999999999);
  }
  51% {
    animation-timing-function: cubic-bezier(0.9226,0.2631,-0.0308,0.7628);
    transform: scale(1.02994);
  }
  100% {
    transform: scale(0.9099999999999999);
  }
}</style></svg>