<?xml version="1.0" encoding="utf-8"?>
<svg xmlns="http://www.w3.org/2000/svg" style="margin: auto; display: block; shape-rendering: auto; background: rgba(0, 0, 0, 0) none repeat scroll 0% 0%;" width="1920" height="204" preserveAspectRatio="xMidYMid">
<style type="text/css">
  text {
    text-anchor: middle; font-size: 200px; opacity: 0;
  }
</style>
<g style="transform-origin: 960px 102px 0px; transform: scale(1.12994);">
<g transform="translate(960,102)">
  <g transform="translate(0,0)"><g class="path" style="transform: scale(0.91); transform-origin: -484.287px 3.11412px 0px; animation: 2.22222s linear -0.804762s infinite normal forwards running breath-a9ae77d9-cb86-448d-8697-64e277357a02;"><path d="M68.68-18.58L68.68-18.58L79.30-8.14L79.30-8.14Q67.08 1.77 51.33 1.77L51.33 1.77L51.33 1.77Q31.68 1.77 19.82-10.89L19.82-10.89L19.82-10.89Q7.96-23.54 7.96-42.48L7.96-42.48L7.96-42.48Q7.96-61.06 20.44-73.90L20.44-73.90L20.44-73.90Q32.92-86.73 51.33-86.73L51.33-86.73L51.33-86.73Q67.08-86.73 79.30-76.82L79.30-76.82L68.85-66.20L68.85-66.20Q61.42-71.86 51.33-71.86L51.33-71.86L51.33-71.86Q39.12-71.86 31.95-63.81L31.95-63.81L31.95-63.81Q24.78-55.75 24.78-42.48L24.78-42.48L24.78-42.48Q24.78-29.20 31.95-21.15L31.95-21.15L31.95-21.15Q39.12-13.10 51.33-13.10L51.33-13.10L51.33-13.10Q61.60-13.10 68.68-18.58" fill="#ff727d" stroke="none" stroke-width="none" transform="translate(-527.916633605957,45.59412131173271)" style="fill: rgb(255, 114, 125);"></path></g><g class="path" style="transform: scale(0.91); transform-origin: -410.032px 3.11412px 0px; animation: 2.22222s linear -0.742857s infinite normal forwards running breath-a9ae77d9-cb86-448d-8697-64e277357a02;"><path d="M107.26 0L91.69 0L91.69-48.32L91.69-48.32Q91.69-68.68 99.30-76.46L99.30-76.46L99.30-76.46Q103.01-80.36 108.32-82.30L108.32-82.30L108.32-82.30Q113.63-84.25 117.62-84.61L117.62-84.61L117.62-84.61Q121.60-84.96 128.50-84.96L128.50-84.96L144.08-84.96L144.08-70.09L125.32-70.09L125.32-70.09Q121.78-70.09 119.83-69.91L119.83-69.91L119.83-69.91Q117.88-69.74 115.23-68.68L115.23-68.68L115.23-68.68Q112.57-67.61 110.62-65.31L110.62-65.31L110.62-65.31Q107.26-61.06 107.26-48.32L107.26-48.32L107.26 0" fill="#ff727d" stroke="none" stroke-width="none" transform="translate(-527.916633605957,45.59412131173271)" style="fill: rgb(255, 114, 125);"></path></g><g class="path" style="transform: scale(0.91); transform-origin: -338.882px 3.11412px 0px; animation: 2.22222s linear -0.680952s infinite normal forwards running breath-a9ae77d9-cb86-448d-8697-64e277357a02;"><path d="M202.84-49.91L202.84-49.91L202.84-33.98L202.84-33.98Q196.12-39.12 186.38-39.12L186.38-39.12L186.38-39.12Q178.06-39.12 173.46-35.84L173.46-35.84L173.46-35.84Q168.86-32.57 168.86-26.55L168.86-26.55L168.86-26.55Q168.86-14.87 186.20-14.87L186.20-14.87L209.57-14.87L209.57-48.67L209.57-48.67Q209.57-70.09 188.68-70.09L188.68-70.09L160.36-70.09L160.36-84.96L189.57-84.96L189.57-84.96Q206.74-84.96 215.94-76.46L215.94-76.46L215.94-76.46Q225.14-67.97 225.14-52.04L225.14-52.04L225.14 0L185.67 0L185.67 0Q170.63 0 161.78-6.73L161.78-6.73L161.78-6.73Q152.93-13.45 152.93-26.37L152.93-26.37L152.93-26.37Q152.93-39.29 162.31-46.02L162.31-46.02L162.31-46.02Q171.69-52.75 185.85-52.75L185.85-52.75L185.85-52.75Q193.81-52.75 202.84-49.91" fill="#ff727d" stroke="none" stroke-width="none" transform="translate(-527.916633605957,45.59412131173271)" style="fill: rgb(255, 114, 125);"></path></g><g class="path" style="transform: scale(0.91); transform-origin: -262.152px -16.4459px 0px; animation: 2.22222s linear -0.619048s infinite normal forwards running breath-a9ae77d9-cb86-448d-8697-64e277357a02;"><path d="M286.39-84.96L286.39-70.09L266.03-70.09L266.03 0L250.10 0L250.10-70.09L238.06-70.09L245.14-84.96L250.10-84.96L250.10-84.96Q250.10-103.01 262.31-113.55L262.31-113.55L262.31-113.55Q274.53-124.08 293.47-124.08L293.47-124.08L293.47-109.21L293.47-109.21Q266.03-109.21 266.03-84.96L266.03-84.96L286.39-84.96" fill="#ff727d" stroke="none" stroke-width="none" transform="translate(-527.916633605957,45.59412131173271)" style="fill: rgb(255, 114, 125);"></path></g><g class="path" style="transform: scale(0.91); transform-origin: -208.432px -5.29088px 0px; animation: 2.22222s linear -0.557143s infinite normal forwards running breath-a9ae77d9-cb86-448d-8697-64e277357a02;"><path d="M307.45-70.09L291.70-70.09L323.38-101.77L323.38-84.96L347.27-84.96L347.27-70.09L323.38-70.09L323.38-33.63L323.38-33.63Q323.38-27.43 325.41-23.36L325.41-23.36L325.41-23.36Q327.45-19.29 331.34-17.61L331.34-17.61L331.34-17.61Q335.24-15.93 338.69-15.40L338.69-15.40L338.69-15.40Q342.14-14.87 347.27-14.87L347.27-14.87L347.27 0L347.27 0Q326.92 0 317.18-7.79L317.18-7.79L317.18-7.79Q307.45-15.58 307.45-33.63L307.45-33.63L307.45-70.09" fill="#ff727d" stroke="none" stroke-width="none" transform="translate(-527.916633605957,45.59412131173271)" style="fill: rgb(255, 114, 125);"></path></g><g class="path" style="transform: scale(0.91); transform-origin: -133.032px 3.11412px 0px; animation: 2.22222s linear -0.495238s infinite normal forwards running breath-a9ae77d9-cb86-448d-8697-64e277357a02;"><path d="M391.70-84.96L423.03-84.96L423.03-70.09L391.70-70.09L391.70-70.09Q386.57-70.09 382.85-68.14L382.85-68.14L382.85-68.14Q379.13-66.20 379.13-62.66L379.13-62.66L379.13-62.66Q379.13-60.53 380.02-58.85L380.02-58.85L380.02-58.85Q380.90-57.17 382.05-56.11L382.05-56.11L382.05-56.11Q383.20-55.05 385.59-53.90L385.59-53.90L385.59-53.90Q387.98-52.75 389.31-52.30L389.31-52.30L389.31-52.30Q390.64-51.86 400.55-48.67L400.55-48.67L400.55-48.67Q410.46-45.49 415.24-43.36L415.24-43.36L415.24-43.36Q420.02-41.24 422.59-37.61L422.59-37.61L422.59-37.61Q425.15-33.98 425.86-30.53L425.86-30.53L425.86-30.53Q426.57-27.08 426.57-23.72L426.57-23.72L426.57-23.72Q426.57 0 394.00 0L394.00 0L363.38 0L363.38-14.87L394.00-14.87L394.00-14.87Q410.64-14.87 410.64-23.72L410.64-23.72L410.64-23.72Q410.64-27.97 405.77-30.80L405.77-30.80L405.77-30.80Q400.90-33.63 393.91-35.58L393.91-35.58L393.91-35.58Q386.92-37.52 379.93-40.09L379.93-40.09L379.93-40.09Q372.94-42.66 368.07-48.41L368.07-48.41L368.07-48.41Q363.20-54.16 363.20-62.66L363.20-62.66L363.20-62.66Q363.20-73.45 371.52-79.21L371.52-79.21L371.52-79.21Q379.84-84.96 391.70-84.96L391.70-84.96" fill="#ff727d" stroke="none" stroke-width="none" transform="translate(-527.916633605957,45.59412131173271)" style="fill: rgb(255, 114, 125);"></path></g><g class="path" style="transform: scale(0.91); transform-origin: -27.5416px 3.11412px 0px; animation: 2.22222s linear -0.433333s infinite normal forwards running breath-a9ae77d9-cb86-448d-8697-64e277357a02;"><path d="M445.15 0L445.15-84.96L523.21-84.96L523.21-84.96Q535.78-84.96 543.21-80.18L543.21-80.18L543.21-80.18Q550.82-75.40 553.21-67.79L553.21-67.79L553.21-67.79Q555.60-60.18 555.60-49.56L555.60-49.56L555.60 0L540.03 0L540.03-49.56L540.03-49.56Q540.03-63.37 531.71-67.79L531.71-67.79L531.71-67.79Q527.46-70.09 514.54-70.09L514.54-70.09L507.28-70.09L507.28 0L491.71 0L491.71-70.09L460.73-70.09L460.73 0L445.15 0" fill="#ff727d" stroke="none" stroke-width="none" transform="translate(-527.916633605957,45.59412131173271)" style="fill: rgb(255, 114, 125);"></path></g><g class="path" style="transform: scale(0.91); transform-origin: 82.3784px 3.11412px 0px; animation: 2.22222s linear -0.371429s infinite normal forwards running breath-a9ae77d9-cb86-448d-8697-64e277357a02;"><path d="M624.10-49.91L624.10-49.91L624.10-33.98L624.10-33.98Q617.38-39.12 607.64-39.12L607.64-39.12L607.64-39.12Q599.32-39.12 594.72-35.84L594.72-35.84L594.72-35.84Q590.12-32.57 590.12-26.55L590.12-26.55L590.12-26.55Q590.12-14.87 607.46-14.87L607.46-14.87L630.83-14.87L630.83-48.67L630.83-48.67Q630.83-70.09 609.94-70.09L609.94-70.09L581.62-70.09L581.62-84.96L610.83-84.96L610.83-84.96Q628.00-84.96 637.20-76.46L637.20-76.46L637.20-76.46Q646.40-67.97 646.40-52.04L646.40-52.04L646.40 0L606.93 0L606.93 0Q591.89 0 583.04-6.73L583.04-6.73L583.04-6.73Q574.19-13.45 574.19-26.37L574.19-26.37L574.19-26.37Q574.19-39.29 583.57-46.02L583.57-46.02L583.57-46.02Q592.95-52.75 607.11-52.75L607.11-52.75L607.11-52.75Q615.07-52.75 624.10-49.91" fill="#ff727d" stroke="none" stroke-width="none" transform="translate(-527.916633605957,45.59412131173271)" style="fill: rgb(255, 114, 125);"></path></g><g class="path" style="transform: scale(0.91); transform-origin: 174.063px 3.11412px 0px; animation: 2.22222s linear -0.309524s infinite normal forwards running breath-a9ae77d9-cb86-448d-8697-64e277357a02;"><path d="M666.76 0L666.76-84.96L697.38-84.96L697.38-84.96Q717.03-84.96 725.52-79.12L725.52-79.12L725.52-79.12Q733.13-73.99 735.17-66.82L735.17-66.82L735.17-66.82Q737.20-59.65 737.20-47.97L737.20-47.97L737.20 0L721.63 0L721.63-47.79L721.63-47.79Q721.63-50.98 721.45-53.19L721.45-53.19L721.45-53.19Q721.27-55.40 720.21-58.85L720.21-58.85L720.21-58.85Q719.15-62.30 717.20-64.52L717.20-64.52L717.20-64.52Q715.26-66.73 711.54-68.41L711.54-68.41L711.54-68.41Q707.82-70.09 702.51-70.09L702.51-70.09L682.33-70.09L682.33 0L666.76 0" fill="#ff727d" stroke="none" stroke-width="none" transform="translate(-527.916633605957,45.59412131173271)" style="fill: rgb(255, 114, 125);"></path></g><g class="path" style="transform: scale(0.91); transform-origin: 261.328px 3.11412px 0px; animation: 2.22222s linear -0.247619s infinite normal forwards running breath-a9ae77d9-cb86-448d-8697-64e277357a02;"><path d="M786.06-84.96L817.39-84.96L817.39-70.09L786.06-70.09L786.06-70.09Q780.92-70.09 777.21-68.14L777.21-68.14L777.21-68.14Q773.49-66.20 773.49-62.66L773.49-62.66L773.49-62.66Q773.49-60.53 774.37-58.85L774.37-58.85L774.37-58.85Q775.26-57.17 776.41-56.11L776.41-56.11L776.41-56.11Q777.56-55.05 779.95-53.90L779.95-53.90L779.95-53.90Q782.34-52.75 783.67-52.30L783.67-52.30L783.67-52.30Q784.99-51.86 794.91-48.67L794.91-48.67L794.91-48.67Q804.82-45.49 809.60-43.36L809.60-43.36L809.60-43.36Q814.38-41.24 816.94-37.61L816.94-37.61L816.94-37.61Q819.51-33.98 820.22-30.53L820.22-30.53L820.22-30.53Q820.93-27.08 820.93-23.72L820.93-23.72L820.93-23.72Q820.93 0 788.36 0L788.36 0L757.74 0L757.74-14.87L788.36-14.87L788.36-14.87Q805.00-14.87 805.00-23.72L805.00-23.72L805.00-23.72Q805.00-27.97 800.13-30.80L800.13-30.80L800.13-30.80Q795.26-33.63 788.27-35.58L788.27-35.58L788.27-35.58Q781.28-37.52 774.29-40.09L774.29-40.09L774.29-40.09Q767.29-42.66 762.43-48.41L762.43-48.41L762.43-48.41Q757.56-54.16 757.56-62.66L757.56-62.66L757.56-62.66Q757.56-73.45 765.88-79.21L765.88-79.21L765.88-79.21Q774.20-84.96 786.06-84.96L786.06-84.96" fill="#ff727d" stroke="none" stroke-width="none" transform="translate(-527.916633605957,45.59412131173271)" style="fill: rgb(255, 114, 125);"></path></g><g class="path" style="transform: scale(0.91); transform-origin: 345.933px -16.3559px 0px; animation: 2.22222s linear -0.185714s infinite normal forwards running breath-a9ae77d9-cb86-448d-8697-64e277357a02;"><path d="M838.63-123.90L854.20-123.90L854.20-84.96L869.25-84.96L869.25-84.96Q888.89-84.96 897.39-79.12L897.39-79.12L897.39-79.12Q905.00-73.99 907.04-66.82L907.04-66.82L907.04-66.82Q909.07-59.65 909.07-47.97L909.07-47.97L909.07 0L893.50 0L893.50-47.79L893.50-47.79Q893.50-50.98 893.32-53.19L893.32-53.19L893.32-53.19Q893.14-55.40 892.08-58.85L892.08-58.85L892.08-58.85Q891.02-62.30 889.07-64.52L889.07-64.52L889.07-64.52Q887.12-66.73 883.41-68.41L883.41-68.41L883.41-68.41Q879.69-70.09 874.38-70.09L874.38-70.09L854.20-70.09L854.20 0L838.63 0L838.63-123.90" fill="#ff727d" stroke="none" stroke-width="none" transform="translate(-527.916633605957,45.59412131173271)" style="fill: rgb(255, 114, 125);"></path></g><g class="path" style="transform: scale(0.91); transform-origin: 410.358px 3.11412px 0px; animation: 2.22222s linear -0.12381s infinite normal forwards running breath-a9ae77d9-cb86-448d-8697-64e277357a02;"><path d="M953.32-84.96L953.32 0L937.75 0L937.75-70.09L923.23-70.09L930.31-84.96L953.32-84.96" fill="#ff727d" stroke="none" stroke-width="none" transform="translate(-527.916633605957,45.59412131173271)" style="fill: rgb(255, 114, 125);"></path></g><g class="path" style="transform: scale(0.91); transform-origin: 416.203px -63.6159px 0px; animation: 2.22222s linear -0.0619048s infinite normal forwards running breath-a9ae77d9-cb86-448d-8697-64e277357a02;"><path d="M937.04-102.66L937.04-102.66L937.04-102.66Q934.74-105.67 934.74-109.21L934.74-109.21L934.74-109.21Q934.74-112.75 937.04-115.67L937.04-115.67L937.04-115.67Q939.34-118.59 944.12-118.59L944.12-118.59L944.12-118.59Q948.90-118.59 951.20-115.67L951.20-115.67L951.20-115.67Q953.50-112.75 953.50-109.21L953.50-109.21L953.50-109.21Q953.50-105.67 951.20-102.75L951.20-102.75L951.20-102.75Q948.90-99.83 944.12-99.83L944.12-99.83L944.12-99.83Q939.34-99.83 937.04-102.66" fill="#ff727d" stroke="none" stroke-width="none" transform="translate(-527.916633605957,45.59412131173271)" style="fill: rgb(255, 114, 125);"></path></g><g class="path" style="transform: scale(0.91); transform-origin: 492.488px 22.4091px 0px; animation: 2.22222s linear 0s infinite normal forwards running breath-a9ae77d9-cb86-448d-8697-64e277357a02;"><path d="M992.97 40.36L977.04 40.36L977.04-42.48L977.04-42.48Q977.04-51.68 980.40-59.83L980.40-59.83L980.40-59.83Q983.77-67.97 989.61-73.90L989.61-73.90L989.61-73.90Q995.45-79.83 1003.41-83.28L1003.41-83.28L1003.41-83.28Q1011.38-86.73 1020.40-86.73L1020.40-86.73L1020.40-86.73Q1029.43-86.73 1037.31-83.28L1037.31-83.28L1037.31-83.28Q1045.18-79.83 1051.11-73.81L1051.11-73.81L1051.11-73.81Q1057.04-67.79 1060.41-59.74L1060.41-59.74L1060.41-59.74Q1063.77-51.68 1063.77-42.48L1063.77-42.48L1063.77-42.48Q1063.77-33.28 1060.50-25.22L1060.50-25.22L1060.50-25.22Q1057.22-17.17 1051.38-11.15L1051.38-11.15L1051.38-11.15Q1045.54-5.13 1037.57-1.68L1037.57-1.68L1037.57-1.68Q1029.61 1.77 1020.40 1.77L1020.40 1.77L1020.40 1.77Q1009.08 1.77 999.34-3.54L999.34-3.54L999.34-19.47L999.34-19.47Q1008.01-13.10 1019.87-13.10L1019.87-13.10L1019.87-13.10Q1026.25-13.10 1031.47-15.31L1031.47-15.31L1031.47-15.31Q1036.69-17.52 1040.32-21.42L1040.32-21.42L1040.32-21.42Q1043.95-25.31 1045.89-30.71L1045.89-30.71L1045.89-30.71Q1047.84-36.11 1047.84-42.48L1047.84-42.48L1047.84-42.48Q1047.84-48.85 1045.89-54.25L1045.89-54.25L1045.89-54.25Q1043.95-59.65 1040.41-63.54L1040.41-63.54L1040.41-63.54Q1036.87-67.44 1031.82-69.65L1031.82-69.65L1031.82-69.65Q1026.78-71.86 1020.40-71.86L1020.40-71.86L1020.40-71.86Q1014.21-71.86 1009.17-69.74L1009.17-69.74L1009.17-69.74Q1004.12-67.61 1000.49-63.72L1000.49-63.72L1000.49-63.72Q996.86-59.83 994.92-54.43L994.92-54.43L994.92-54.43Q992.97-49.03 992.97-42.48L992.97-42.48L992.97 40.36" fill="#ff727d" stroke="none" stroke-width="none" transform="translate(-527.916633605957,45.59412131173271)" style="fill: rgb(255, 114, 125);"></path></g></g>
</g>
</g>
<style id="breath-a9ae77d9-cb86-448d-8697-64e277357a02" data-anikit="">@keyframes breath-a9ae77d9-cb86-448d-8697-64e277357a02
{
  0% {
    animation-timing-function: cubic-bezier(0.9647,0.2413,-0.0705,0.7911);
    transform: scale(0.9099999999999999);
  }
  51% {
    animation-timing-function: cubic-bezier(0.9226,0.2631,-0.0308,0.7628);
    transform: scale(1.02994);
  }
  100% {
    transform: scale(0.9099999999999999);
  }
}</style></svg>