<?xml version="1.0" encoding="utf-8"?>
<svg xmlns="http://www.w3.org/2000/svg" style="margin: auto; display: block; shape-rendering: auto; background: rgba(0, 0, 0, 0) none repeat scroll 0% 0%;" width="1215" height="214" preserveAspectRatio="xMidYMid">
<style type="text/css">
  text {
    text-anchor: middle; font-size: 176px; opacity: 0;
  }
</style>
<g style="transform-origin: 607.5px 107px 0px; transform: scale(0.99435);">
<g transform="translate(607.5,107)">
  <g transform="translate(0,0)"><g class="path" style="transform: scale(0.91); transform-origin: -407.558px -2.87682px 0px; animation: 3.44828s linear -1.25517s infinite normal forwards running breath-2335b2c7-44b0-4d7a-a576-3c29911678ca;"><path d="M11.50 0L11.50-84.96L89.56-84.96L89.56-84.96Q102.13-84.96 109.56-80.18L109.56-80.18L109.56-80.18Q117.17-75.40 119.56-67.79L119.56-67.79L119.56-67.79Q121.95-60.18 121.95-49.56L121.95-49.56L121.95 0L106.38 0L106.38-49.56L106.38-49.56Q106.38-63.37 98.06-67.79L98.06-67.79L98.06-67.79Q93.81-70.09 80.89-70.09L80.89-70.09L73.63-70.09L73.63 0L58.06 0L58.06-70.09L27.08-70.09L27.08 0L11.50 0" fill="#ff727d" stroke="none" stroke-width="none" transform="translate(-474.28330993652344,39.60318027750651)" style="fill: rgb(255, 114, 125);"></path></g><g class="path" style="transform: scale(0.91); transform-origin: -296.573px -2.89532px 0px; animation: 3.44828s linear -1.16552s infinite normal forwards running breath-2335b2c7-44b0-4d7a-a576-3c29911678ca;"><path d="M184.79-86.73L184.79-86.73L184.79-86.73Q214.88-85.49 214.88-61.77L214.88-61.77L214.88-61.77Q214.88-32.21 176.11-32.21L176.11-32.21L168.86-32.21L168.86-45.84L177.35-45.84L177.35-45.84Q189.21-45.84 193.81-49.47L193.81-49.47L193.81-49.47Q198.42-53.10 198.42-61.60L198.42-61.60L198.42-61.60Q198.42-67.08 194.35-69.83L194.35-69.83L194.35-69.83Q190.27-72.57 183.90-72.57L183.90-72.57L183.90-72.57Q171.34-72.57 164.17-63.72L164.17-63.72L164.17-63.72Q157.00-54.87 157.00-42.48L157.00-42.48L157.00-42.48Q157.00-29.38 164.70-21.24L164.70-21.24L164.70-21.24Q172.40-13.10 184.79-13.10L184.79-13.10L184.79-13.10Q195.94-13.10 203.02-18.58L203.02-18.58L213.64-8.14L213.64-8.14Q201.43 1.77 184.79 1.77L184.79 1.77L184.79 1.77Q164.61 1.77 152.57-10.09L152.57-10.09L152.57-10.09Q140.54-21.95 140.54-40.71L140.54-40.71L140.54-40.71Q140.54-61.60 152.40-74.52L152.40-74.52L152.40-74.52Q164.26-87.44 184.79-86.73" fill="#ff727d" stroke="none" stroke-width="none" transform="translate(-474.28330993652344,39.60318027750651)" style="fill: rgb(255, 114, 125);"></path></g><g class="path" style="transform: scale(0.91); transform-origin: -233.738px -2.87682px 0px; animation: 3.44828s linear -1.07586s infinite normal forwards running breath-2335b2c7-44b0-4d7a-a576-3c29911678ca;"><path d="M255.59-84.96L255.59 0L240.01 0L240.01-70.09L225.50-70.09L232.58-84.96L255.59-84.96" fill="#ff727d" stroke="none" stroke-width="none" transform="translate(-474.28330993652344,39.60318027750651)" style="fill: rgb(255, 114, 125);"></path></g><g class="path" style="transform: scale(0.91); transform-origin: -227.903px -69.6068px 0px; animation: 3.44828s linear -0.986207s infinite normal forwards running breath-2335b2c7-44b0-4d7a-a576-3c29911678ca;"><path d="M239.30-102.66L239.30-102.66L239.30-102.66Q237.00-105.67 237.00-109.21L237.00-109.21L237.00-109.21Q237.00-112.75 239.30-115.67L239.30-115.67L239.30-115.67Q241.60-118.59 246.38-118.59L246.38-118.59L246.38-118.59Q251.16-118.59 253.46-115.67L253.46-115.67L253.46-115.67Q255.76-112.75 255.76-109.21L255.76-109.21L255.76-109.21Q255.76-105.67 253.46-102.75L253.46-102.75L253.46-102.75Q251.16-99.83 246.38-99.83L246.38-99.83L246.38-99.83Q241.60-99.83 239.30-102.66" fill="#ff727d" stroke="none" stroke-width="none" transform="translate(-474.28330993652344,39.60318027750651)" style="fill: rgb(255, 114, 125);"></path></g><g class="path" style="transform: scale(0.91); transform-origin: -164.178px -2.87682px 0px; animation: 3.44828s linear -0.896552s infinite normal forwards running breath-2335b2c7-44b0-4d7a-a576-3c29911678ca;"><path d="M306.92-84.96L338.25-84.96L338.25-70.09L306.92-70.09L306.92-70.09Q301.78-70.09 298.07-68.14L298.07-68.14L298.07-68.14Q294.35-66.20 294.35-62.66L294.35-62.66L294.35-62.66Q294.35-60.53 295.24-58.85L295.24-58.85L295.24-58.85Q296.12-57.17 297.27-56.11L297.27-56.11L297.27-56.11Q298.42-55.05 300.81-53.90L300.81-53.90L300.81-53.90Q303.20-52.75 304.53-52.30L304.53-52.30L304.53-52.30Q305.86-51.86 315.77-48.67L315.77-48.67L315.77-48.67Q325.68-45.49 330.46-43.36L330.46-43.36L330.46-43.36Q335.24-41.24 337.80-37.61L337.80-37.61L337.80-37.61Q340.37-33.98 341.08-30.53L341.08-30.53L341.08-30.53Q341.79-27.08 341.79-23.72L341.79-23.72L341.79-23.72Q341.79 0 309.22 0L309.22 0L278.60 0L278.60-14.87L309.22-14.87L309.22-14.87Q325.86-14.87 325.86-23.72L325.86-23.72L325.86-23.72Q325.86-27.97 320.99-30.80L320.99-30.80L320.99-30.80Q316.12-33.63 309.13-35.58L309.13-35.58L309.13-35.58Q302.14-37.52 295.15-40.09L295.15-40.09L295.15-40.09Q288.16-42.66 283.29-48.41L283.29-48.41L283.29-48.41Q278.42-54.16 278.42-62.66L278.42-62.66L278.42-62.66Q278.42-73.45 286.74-79.21L286.74-79.21L286.74-79.21Q295.06-84.96 306.92-84.96L306.92-84.96" fill="#ff727d" stroke="none" stroke-width="none" transform="translate(-474.28330993652344,39.60318027750651)" style="fill: rgb(255, 114, 125);"></path></g><g class="path" style="transform: scale(0.91); transform-origin: -95.8583px -11.2818px 0px; animation: 3.44828s linear -0.806897s infinite normal forwards running breath-2335b2c7-44b0-4d7a-a576-3c29911678ca;"><path d="M366.39-70.09L350.64-70.09L382.32-101.77L382.32-84.96L406.21-84.96L406.21-70.09L382.32-70.09L382.32-33.63L382.32-33.63Q382.32-27.43 384.36-23.36L384.36-23.36L384.36-23.36Q386.39-19.29 390.28-17.61L390.28-17.61L390.28-17.61Q394.18-15.93 397.63-15.40L397.63-15.40L397.63-15.40Q401.08-14.87 406.21-14.87L406.21-14.87L406.21 0L406.21 0Q385.86 0 376.12-7.79L376.12-7.79L376.12-7.79Q366.39-15.58 366.39-33.63L366.39-33.63L366.39-70.09" fill="#ff727d" stroke="none" stroke-width="none" transform="translate(-474.28330993652344,39.60318027750651)" style="fill: rgb(255, 114, 125);"></path></g><g class="path" style="transform: scale(0.91); transform-origin: -16.7433px -2.89532px 0px; animation: 3.44828s linear -0.717241s infinite normal forwards running breath-2335b2c7-44b0-4d7a-a576-3c29911678ca;"><path d="M464.62-86.73L464.62-86.73L464.62-86.73Q494.71-85.49 494.71-61.77L494.71-61.77L494.71-61.77Q494.71-32.21 455.95-32.21L455.95-32.21L448.69-32.21L448.69-45.84L457.19-45.84L457.19-45.84Q469.05-45.84 473.65-49.47L473.65-49.47L473.65-49.47Q478.25-53.10 478.25-61.60L478.25-61.60L478.25-61.60Q478.25-67.08 474.18-69.83L474.18-69.83L474.18-69.83Q470.11-72.57 463.74-72.57L463.74-72.57L463.74-72.57Q451.17-72.57 444.00-63.72L444.00-63.72L444.00-63.72Q436.84-54.87 436.84-42.48L436.84-42.48L436.84-42.48Q436.84-29.38 444.54-21.24L444.54-21.24L444.54-21.24Q452.23-13.10 464.62-13.10L464.62-13.10L464.62-13.10Q475.78-13.10 482.86-18.58L482.86-18.58L493.48-8.14L493.48-8.14Q481.26 1.77 464.62 1.77L464.62 1.77L464.62 1.77Q444.45 1.77 432.41-10.09L432.41-10.09L432.41-10.09Q420.37-21.95 420.37-40.71L420.37-40.71L420.37-40.71Q420.37-61.60 432.23-74.52L432.23-74.52L432.23-74.52Q444.09-87.44 464.62-86.73" fill="#ff727d" stroke="none" stroke-width="none" transform="translate(-474.28330993652344,39.60318027750651)" style="fill: rgb(255, 114, 125);"></path></g><g class="path" style="transform: scale(0.91); transform-origin: 61.6717px -2.87682px 0px; animation: 3.44828s linear -0.627586s infinite normal forwards running breath-2335b2c7-44b0-4d7a-a576-3c29911678ca;"><path d="M525.34 0L509.76 0L509.76-48.32L509.76-48.32Q509.76-68.68 517.37-76.46L517.37-76.46L517.37-76.46Q521.09-80.36 526.40-82.30L526.40-82.30L526.40-82.30Q531.71-84.25 535.69-84.61L535.69-84.61L535.69-84.61Q539.67-84.96 546.58-84.96L546.58-84.96L562.15-84.96L562.15-70.09L543.39-70.09L543.39-70.09Q539.85-70.09 537.90-69.91L537.90-69.91L537.90-69.91Q535.96-69.74 533.30-68.68L533.30-68.68L533.30-68.68Q530.65-67.61 528.70-65.31L528.70-65.31L528.70-65.31Q525.34-61.06 525.34-48.32L525.34-48.32L525.34 0" fill="#ff727d" stroke="none" stroke-width="none" transform="translate(-474.28330993652344,39.60318027750651)" style="fill: rgb(255, 114, 125);"></path></g><g class="path" style="transform: scale(0.91); transform-origin: 130.172px -2.87682px 0px; animation: 3.44828s linear -0.537931s infinite normal forwards running breath-2335b2c7-44b0-4d7a-a576-3c29911678ca;"><path d="M601.27-84.96L632.60-84.96L632.60-70.09L601.27-70.09L601.27-70.09Q596.14-70.09 592.42-68.14L592.42-68.14L592.42-68.14Q588.70-66.20 588.70-62.66L588.70-62.66L588.70-62.66Q588.70-60.53 589.59-58.85L589.59-58.85L589.59-58.85Q590.47-57.17 591.62-56.11L591.62-56.11L591.62-56.11Q592.77-55.05 595.16-53.90L595.16-53.90L595.16-53.90Q597.55-52.75 598.88-52.30L598.88-52.30L598.88-52.30Q600.21-51.86 610.12-48.67L610.12-48.67L610.12-48.67Q620.03-45.49 624.81-43.36L624.81-43.36L624.81-43.36Q629.59-41.24 632.16-37.61L632.16-37.61L632.16-37.61Q634.72-33.98 635.43-30.53L635.43-30.53L635.43-30.53Q636.14-27.08 636.14-23.72L636.14-23.72L636.14-23.72Q636.14 0 603.57 0L603.57 0L572.95 0L572.95-14.87L603.57-14.87L603.57-14.87Q620.21-14.87 620.21-23.72L620.21-23.72L620.21-23.72Q620.21-27.97 615.34-30.80L615.34-30.80L615.34-30.80Q610.47-33.63 603.48-35.58L603.48-35.58L603.48-35.58Q596.49-37.52 589.50-40.09L589.50-40.09L589.50-40.09Q582.51-42.66 577.64-48.41L577.64-48.41L577.64-48.41Q572.77-54.16 572.77-62.66L572.77-62.66L572.77-62.66Q572.77-73.45 581.09-79.21L581.09-79.21L581.09-79.21Q589.41-84.96 601.27-84.96L601.27-84.96" fill="#ff727d" stroke="none" stroke-width="none" transform="translate(-474.28330993652344,39.60318027750651)" style="fill: rgb(255, 114, 125);"></path></g><g class="path" style="transform: scale(0.91); transform-origin: 198.497px -11.2818px 0px; animation: 3.44828s linear -0.448276s infinite normal forwards running breath-2335b2c7-44b0-4d7a-a576-3c29911678ca;"><path d="M660.74-70.09L644.99-70.09L676.67-101.77L676.67-84.96L700.57-84.96L700.57-70.09L676.67-70.09L676.67-33.63L676.67-33.63Q676.67-27.43 678.71-23.36L678.71-23.36L678.71-23.36Q680.74-19.29 684.64-17.61L684.64-17.61L684.64-17.61Q688.53-15.93 691.98-15.40L691.98-15.40L691.98-15.40Q695.43-14.87 700.57-14.87L700.57-14.87L700.57 0L700.57 0Q680.21 0 670.48-7.79L670.48-7.79L670.48-7.79Q660.74-15.58 660.74-33.63L660.74-33.63L660.74-70.09" fill="#ff727d" stroke="none" stroke-width="none" transform="translate(-474.28330993652344,39.60318027750651)" style="fill: rgb(255, 114, 125);"></path></g><g class="path" style="transform: scale(0.91); transform-origin: 278.322px -2.87682px 0px; animation: 3.44828s linear -0.358621s infinite normal forwards running breath-2335b2c7-44b0-4d7a-a576-3c29911678ca;"><path d="M787.83-84.96L787.83 0L757.21 0L757.21 0Q737.56 0 729.06-5.84L729.06-5.84L729.06-5.84Q721.45-10.97 719.42-18.14L719.42-18.14L719.42-18.14Q717.38-25.31 717.38-36.99L717.38-36.99L717.38-84.96L732.96-84.96L732.96-37.17L732.96-37.17Q732.96-33.98 733.13-31.77L733.13-31.77L733.13-31.77Q733.31-29.56 734.37-26.11L734.37-26.11L734.37-26.11Q735.43-22.66 737.38-20.44L737.38-20.44L737.38-20.44Q739.33-18.23 743.05-16.55L743.05-16.55L743.05-16.55Q746.76-14.87 752.07-14.87L752.07-14.87L772.25-14.87L772.25-84.96L787.83-84.96" fill="#ff727d" stroke="none" stroke-width="none" transform="translate(-474.28330993652344,39.60318027750651)" style="fill: rgb(255, 114, 125);"></path></g><g class="path" style="transform: scale(0.91); transform-origin: 262.747px -70.8468px 0px; animation: 3.44828s linear -0.268966s infinite normal forwards running breath-2335b2c7-44b0-4d7a-a576-3c29911678ca;"><path d="M729.95-103.37L729.95-103.37L729.95-103.37Q727.12-106.20 727.12-110.45L727.12-110.45L727.12-110.45Q727.12-114.70 729.95-117.53L729.95-117.53L729.95-117.53Q732.78-120.36 737.03-120.36L737.03-120.36L737.03-120.36Q741.28-120.36 744.11-117.53L744.11-117.53L744.11-117.53Q746.94-114.70 746.94-110.45L746.94-110.45L746.94-110.45Q746.94-106.20 744.11-103.37L744.11-103.37L744.11-103.37Q741.28-100.54 737.03-100.54L737.03-100.54L737.03-100.54Q732.78-100.54 729.95-103.37" fill="#ff727d" stroke="none" stroke-width="none" transform="translate(-474.28330993652344,39.60318027750651)" style="fill: rgb(255, 114, 125);"></path></g><g class="path" style="transform: scale(0.91); transform-origin: 294.607px -70.8468px 0px; animation: 3.44828s linear -0.17931s infinite normal forwards running breath-2335b2c7-44b0-4d7a-a576-3c29911678ca;"><path d="M761.81-103.37L761.81-103.37L761.81-103.37Q758.98-106.20 758.98-110.45L758.98-110.45L758.98-110.45Q758.98-114.70 761.81-117.53L761.81-117.53L761.81-117.53Q764.64-120.36 768.89-120.36L768.89-120.36L768.89-120.36Q773.14-120.36 775.97-117.53L775.97-117.53L775.97-117.53Q778.80-114.70 778.80-110.45L778.80-110.45L778.80-110.45Q778.80-106.20 775.97-103.37L775.97-103.37L775.97-103.37Q773.14-100.54 768.89-100.54L768.89-100.54L768.89-100.54Q764.64-100.54 761.81-103.37" fill="#ff727d" stroke="none" stroke-width="none" transform="translate(-474.28330993652344,39.60318027750651)" style="fill: rgb(255, 114, 125);"></path></g><g class="path" style="transform: scale(0.91); transform-origin: 368.682px -2.87682px 0px; animation: 3.44828s linear -0.0896552s infinite normal forwards running breath-2335b2c7-44b0-4d7a-a576-3c29911678ca;"><path d="M868.01-18.58L868.01-18.58L878.63-8.14L878.63-8.14Q866.41 1.77 850.66 1.77L850.66 1.77L850.66 1.77Q831.01 1.77 819.16-10.89L819.16-10.89L819.16-10.89Q807.30-23.54 807.30-42.48L807.30-42.48L807.30-42.48Q807.30-61.06 819.78-73.90L819.78-73.90L819.78-73.90Q832.25-86.73 850.66-86.73L850.66-86.73L850.66-86.73Q866.41-86.73 878.63-76.82L878.63-76.82L868.18-66.20L868.18-66.20Q860.75-71.86 850.66-71.86L850.66-71.86L850.66-71.86Q838.45-71.86 831.28-63.81L831.28-63.81L831.28-63.81Q824.11-55.75 824.11-42.48L824.11-42.48L824.11-42.48Q824.11-29.20 831.28-21.15L831.28-21.15L831.28-21.15Q838.45-13.10 850.66-13.10L850.66-13.10L850.66-13.10Q860.93-13.10 868.01-18.58" fill="#ff727d" stroke="none" stroke-width="none" transform="translate(-474.28330993652344,39.60318027750651)" style="fill: rgb(255, 114, 125);"></path></g><g class="path" style="transform: scale(0.91); transform-origin: 452.577px -22.3468px 0px; animation: 3.44828s linear 0s infinite normal forwards running breath-2335b2c7-44b0-4d7a-a576-3c29911678ca;"><path d="M924.12-51.15L942.52-84.96L959.69-84.96L938.28-47.97L938.28-47.97Q960.05-42.13 960.05-12.74L960.05-12.74L960.05 0L944.47 0L944.47-12.92L944.47-12.92Q944.47-24.78 937.48-31.24L937.48-31.24L937.48-31.24Q930.49-37.70 917.57-37.70L917.57-37.70L917.57-37.70Q913.50-37.70 909.25-37.17L909.25-37.17L909.25 0L893.67 0L893.67-123.90L909.25-123.90L909.25-51.15L909.25-51.15Q916.68-52.21 924.12-51.15L924.12-51.15" fill="#ff727d" stroke="none" stroke-width="none" transform="translate(-474.28330993652344,39.60318027750651)" style="fill: rgb(255, 114, 125);"></path></g></g>
</g>
</g>
<style id="breath-2335b2c7-44b0-4d7a-a576-3c29911678ca" data-anikit="">@keyframes breath-2335b2c7-44b0-4d7a-a576-3c29911678ca
{
  0% {
    animation-timing-function: cubic-bezier(0.9647,0.2413,-0.0705,0.7911);
    transform: scale(0.9099999999999999);
  }
  51% {
    animation-timing-function: cubic-bezier(0.9226,0.2631,-0.0308,0.7628);
    transform: scale(1.02994);
  }
  100% {
    transform: scale(0.9099999999999999);
  }
}</style></svg>